<mxfile host="app.diagrams.net" agent="Mozilla/5.0 (Windows NT 10.0; Win64; x64) AppleWebKit/537.36 (KHTML, like Gecko) Chrome/130.0.0.0 Safari/537.36" version="25.0.3">
  <diagram name="Page-1" id="YfxFNRCtZNe768ZREG_K">
    <mxGraphModel grid="1" page="1" gridSize="10" guides="1" tooltips="1" connect="1" arrows="1" fold="1" pageScale="1" pageWidth="850" pageHeight="1100" math="0" shadow="0">
      <root>
        <mxCell id="0" />
        <mxCell id="1" parent="0" />
        <mxCell id="U2Io4nyAQiquWzaoB_U4-80" value="" style="group" connectable="0" vertex="1" parent="1">
          <mxGeometry x="125" y="530" width="120" height="240" as="geometry" />
        </mxCell>
        <mxCell id="U2Io4nyAQiquWzaoB_U4-46" value="" style="rounded=0;whiteSpace=wrap;html=1;" vertex="1" parent="U2Io4nyAQiquWzaoB_U4-80">
          <mxGeometry width="120" height="240" as="geometry" />
        </mxCell>
        <mxCell id="U2Io4nyAQiquWzaoB_U4-47" value="RFID-RC522" style="rounded=0;whiteSpace=wrap;html=1;" vertex="1" parent="U2Io4nyAQiquWzaoB_U4-80">
          <mxGeometry x="10" y="110" width="100" height="110" as="geometry" />
        </mxCell>
        <mxCell id="U2Io4nyAQiquWzaoB_U4-49" value="3V3" style="rounded=0;whiteSpace=wrap;html=1;rotation=-90;" vertex="1" parent="U2Io4nyAQiquWzaoB_U4-80">
          <mxGeometry x="10" y="20" width="30" height="10" as="geometry" />
        </mxCell>
        <mxCell id="U2Io4nyAQiquWzaoB_U4-51" value="RST" style="rounded=0;whiteSpace=wrap;html=1;rotation=-90;" vertex="1" parent="U2Io4nyAQiquWzaoB_U4-80">
          <mxGeometry x="20" y="20" width="30" height="10" as="geometry" />
        </mxCell>
        <mxCell id="U2Io4nyAQiquWzaoB_U4-55" value="GND" style="rounded=0;whiteSpace=wrap;html=1;rotation=-90;" vertex="1" parent="U2Io4nyAQiquWzaoB_U4-80">
          <mxGeometry x="30" y="20" width="30" height="10" as="geometry" />
        </mxCell>
        <mxCell id="U2Io4nyAQiquWzaoB_U4-56" value="IRQ" style="rounded=0;whiteSpace=wrap;html=1;rotation=-90;" vertex="1" parent="U2Io4nyAQiquWzaoB_U4-80">
          <mxGeometry x="40" y="20" width="30" height="10" as="geometry" />
        </mxCell>
        <mxCell id="U2Io4nyAQiquWzaoB_U4-57" value="&lt;span style=&quot;font-size: 10px;&quot;&gt;MISO&lt;/span&gt;" style="rounded=0;whiteSpace=wrap;html=1;rotation=-90;" vertex="1" parent="U2Io4nyAQiquWzaoB_U4-80">
          <mxGeometry x="50" y="20" width="30" height="10" as="geometry" />
        </mxCell>
        <mxCell id="U2Io4nyAQiquWzaoB_U4-58" value="&lt;font style=&quot;font-size: 10px;&quot;&gt;MOSI&lt;/font&gt;" style="rounded=0;whiteSpace=wrap;html=1;rotation=-90;" vertex="1" parent="U2Io4nyAQiquWzaoB_U4-80">
          <mxGeometry x="60" y="20" width="30" height="10" as="geometry" />
        </mxCell>
        <mxCell id="U2Io4nyAQiquWzaoB_U4-59" value="SCK" style="rounded=0;whiteSpace=wrap;html=1;rotation=-90;" vertex="1" parent="U2Io4nyAQiquWzaoB_U4-80">
          <mxGeometry x="70" y="20" width="30" height="10" as="geometry" />
        </mxCell>
        <mxCell id="U2Io4nyAQiquWzaoB_U4-60" value="SDA" style="rounded=0;whiteSpace=wrap;html=1;rotation=-90;" vertex="1" parent="U2Io4nyAQiquWzaoB_U4-80">
          <mxGeometry x="80" y="20" width="30" height="10" as="geometry" />
        </mxCell>
        <mxCell id="U2Io4nyAQiquWzaoB_U4-1" value="" style="rounded=0;whiteSpace=wrap;html=1;" vertex="1" parent="1">
          <mxGeometry x="305" y="40" width="240" height="400" as="geometry" />
        </mxCell>
        <mxCell id="U2Io4nyAQiquWzaoB_U4-2" value="USB" style="rounded=0;whiteSpace=wrap;html=1;" vertex="1" parent="1">
          <mxGeometry x="405" y="40" width="40" height="20" as="geometry" />
        </mxCell>
        <mxCell id="U2Io4nyAQiquWzaoB_U4-3" value="" style="whiteSpace=wrap;html=1;aspect=fixed;" vertex="1" parent="1">
          <mxGeometry x="360" y="250" width="130" height="130" as="geometry" />
        </mxCell>
        <mxCell id="U2Io4nyAQiquWzaoB_U4-4" value="CLK" style="rounded=0;whiteSpace=wrap;html=1;" vertex="1" parent="1">
          <mxGeometry x="315" y="60" width="30" height="10" as="geometry" />
        </mxCell>
        <mxCell id="U2Io4nyAQiquWzaoB_U4-6" value="SDD" style="rounded=0;whiteSpace=wrap;html=1;" vertex="1" parent="1">
          <mxGeometry x="315" y="80" width="30" height="10" as="geometry" />
        </mxCell>
        <mxCell id="U2Io4nyAQiquWzaoB_U4-7" value="SD1" style="rounded=0;whiteSpace=wrap;html=1;" vertex="1" parent="1">
          <mxGeometry x="315" y="100" width="30" height="10" as="geometry" />
        </mxCell>
        <mxCell id="U2Io4nyAQiquWzaoB_U4-8" value="G15" style="rounded=0;whiteSpace=wrap;html=1;" vertex="1" parent="1">
          <mxGeometry x="315" y="120" width="30" height="10" as="geometry" />
        </mxCell>
        <mxCell id="U2Io4nyAQiquWzaoB_U4-9" value="G2" style="rounded=0;whiteSpace=wrap;html=1;" vertex="1" parent="1">
          <mxGeometry x="315" y="140" width="30" height="10" as="geometry" />
        </mxCell>
        <mxCell id="U2Io4nyAQiquWzaoB_U4-10" value="G0" style="rounded=0;whiteSpace=wrap;html=1;" vertex="1" parent="1">
          <mxGeometry x="315" y="160" width="30" height="10" as="geometry" />
        </mxCell>
        <mxCell id="U2Io4nyAQiquWzaoB_U4-11" value="G6" style="rounded=0;whiteSpace=wrap;html=1;" vertex="1" parent="1">
          <mxGeometry x="315" y="180" width="30" height="10" as="geometry" />
        </mxCell>
        <mxCell id="U2Io4nyAQiquWzaoB_U4-12" value="G18" style="rounded=0;whiteSpace=wrap;html=1;" vertex="1" parent="1">
          <mxGeometry x="315" y="200" width="30" height="10" as="geometry" />
        </mxCell>
        <mxCell id="U2Io4nyAQiquWzaoB_U4-13" value="G17" style="rounded=0;whiteSpace=wrap;html=1;" vertex="1" parent="1">
          <mxGeometry x="315" y="220" width="30" height="10" as="geometry" />
        </mxCell>
        <mxCell id="U2Io4nyAQiquWzaoB_U4-14" value="G5" style="rounded=0;whiteSpace=wrap;html=1;" vertex="1" parent="1">
          <mxGeometry x="315" y="240" width="30" height="10" as="geometry" />
        </mxCell>
        <mxCell id="U2Io4nyAQiquWzaoB_U4-15" value="G18" style="rounded=0;whiteSpace=wrap;html=1;" vertex="1" parent="1">
          <mxGeometry x="315" y="260" width="30" height="10" as="geometry" />
        </mxCell>
        <mxCell id="U2Io4nyAQiquWzaoB_U4-16" value="G19" style="rounded=0;whiteSpace=wrap;html=1;" vertex="1" parent="1">
          <mxGeometry x="315" y="280" width="30" height="10" as="geometry" />
        </mxCell>
        <mxCell id="U2Io4nyAQiquWzaoB_U4-17" value="GND" style="rounded=0;whiteSpace=wrap;html=1;" vertex="1" parent="1">
          <mxGeometry x="315" y="300" width="30" height="10" as="geometry" />
        </mxCell>
        <mxCell id="U2Io4nyAQiquWzaoB_U4-18" value="G21" style="rounded=0;whiteSpace=wrap;html=1;" vertex="1" parent="1">
          <mxGeometry x="315" y="320" width="30" height="10" as="geometry" />
        </mxCell>
        <mxCell id="U2Io4nyAQiquWzaoB_U4-19" value="RXO" style="rounded=0;whiteSpace=wrap;html=1;" vertex="1" parent="1">
          <mxGeometry x="315" y="340" width="30" height="10" as="geometry" />
        </mxCell>
        <mxCell id="U2Io4nyAQiquWzaoB_U4-20" value="TXO" style="rounded=0;whiteSpace=wrap;html=1;" vertex="1" parent="1">
          <mxGeometry x="315" y="360" width="30" height="10" as="geometry" />
        </mxCell>
        <mxCell id="U2Io4nyAQiquWzaoB_U4-21" value="G22" style="rounded=0;whiteSpace=wrap;html=1;" vertex="1" parent="1">
          <mxGeometry x="315" y="380" width="30" height="10" as="geometry" />
        </mxCell>
        <mxCell id="U2Io4nyAQiquWzaoB_U4-22" value="G23" style="rounded=0;whiteSpace=wrap;html=1;" vertex="1" parent="1">
          <mxGeometry x="315" y="400" width="30" height="10" as="geometry" />
        </mxCell>
        <mxCell id="U2Io4nyAQiquWzaoB_U4-23" value="GND" style="rounded=0;whiteSpace=wrap;html=1;" vertex="1" parent="1">
          <mxGeometry x="315" y="420" width="30" height="10" as="geometry" />
        </mxCell>
        <mxCell id="U2Io4nyAQiquWzaoB_U4-24" value="V5" style="rounded=0;whiteSpace=wrap;html=1;" vertex="1" parent="1">
          <mxGeometry x="505" y="60" width="30" height="10" as="geometry" />
        </mxCell>
        <mxCell id="U2Io4nyAQiquWzaoB_U4-25" value="CMD" style="rounded=0;whiteSpace=wrap;html=1;" vertex="1" parent="1">
          <mxGeometry x="505" y="80" width="30" height="10" as="geometry" />
        </mxCell>
        <mxCell id="U2Io4nyAQiquWzaoB_U4-26" value="SO3" style="rounded=0;whiteSpace=wrap;html=1;" vertex="1" parent="1">
          <mxGeometry x="505" y="100" width="30" height="10" as="geometry" />
        </mxCell>
        <mxCell id="U2Io4nyAQiquWzaoB_U4-27" value="S02" style="rounded=0;whiteSpace=wrap;html=1;" vertex="1" parent="1">
          <mxGeometry x="505" y="120" width="30" height="10" as="geometry" />
        </mxCell>
        <mxCell id="U2Io4nyAQiquWzaoB_U4-28" value="G13" style="rounded=0;whiteSpace=wrap;html=1;" vertex="1" parent="1">
          <mxGeometry x="505" y="140" width="30" height="10" as="geometry" />
        </mxCell>
        <mxCell id="U2Io4nyAQiquWzaoB_U4-29" value="GND" style="rounded=0;whiteSpace=wrap;html=1;" vertex="1" parent="1">
          <mxGeometry x="505" y="160" width="30" height="10" as="geometry" />
        </mxCell>
        <mxCell id="U2Io4nyAQiquWzaoB_U4-30" value="G12" style="rounded=0;whiteSpace=wrap;html=1;" vertex="1" parent="1">
          <mxGeometry x="505" y="180" width="30" height="10" as="geometry" />
        </mxCell>
        <mxCell id="U2Io4nyAQiquWzaoB_U4-31" value="G14" style="rounded=0;whiteSpace=wrap;html=1;" vertex="1" parent="1">
          <mxGeometry x="505" y="200" width="30" height="10" as="geometry" />
        </mxCell>
        <mxCell id="U2Io4nyAQiquWzaoB_U4-84" style="edgeStyle=orthogonalEdgeStyle;rounded=0;orthogonalLoop=1;jettySize=auto;html=1;entryX=1;entryY=0;entryDx=0;entryDy=0;endArrow=none;endFill=0;fillColor=#d5e8d4;strokeColor=#82b366;" edge="1" parent="1" source="U2Io4nyAQiquWzaoB_U4-32" target="U2Io4nyAQiquWzaoB_U4-70">
          <mxGeometry relative="1" as="geometry" />
        </mxCell>
        <mxCell id="U2Io4nyAQiquWzaoB_U4-32" value="G27" style="rounded=0;whiteSpace=wrap;html=1;" vertex="1" parent="1">
          <mxGeometry x="505" y="220" width="30" height="10" as="geometry" />
        </mxCell>
        <mxCell id="U2Io4nyAQiquWzaoB_U4-33" value="G26" style="rounded=0;whiteSpace=wrap;html=1;" vertex="1" parent="1">
          <mxGeometry x="505" y="240" width="30" height="10" as="geometry" />
        </mxCell>
        <mxCell id="U2Io4nyAQiquWzaoB_U4-34" value="G25" style="rounded=0;whiteSpace=wrap;html=1;" vertex="1" parent="1">
          <mxGeometry x="505" y="260" width="30" height="10" as="geometry" />
        </mxCell>
        <mxCell id="U2Io4nyAQiquWzaoB_U4-86" style="edgeStyle=orthogonalEdgeStyle;rounded=0;orthogonalLoop=1;jettySize=auto;html=1;entryX=1;entryY=0;entryDx=0;entryDy=0;fillColor=#dae8fc;strokeColor=#6c8ebf;endArrow=none;endFill=0;" edge="1" parent="1" source="U2Io4nyAQiquWzaoB_U4-35" target="U2Io4nyAQiquWzaoB_U4-67">
          <mxGeometry relative="1" as="geometry" />
        </mxCell>
        <mxCell id="U2Io4nyAQiquWzaoB_U4-35" value="G33" style="rounded=0;whiteSpace=wrap;html=1;" vertex="1" parent="1">
          <mxGeometry x="505" y="280" width="30" height="10" as="geometry" />
        </mxCell>
        <mxCell id="U2Io4nyAQiquWzaoB_U4-85" style="edgeStyle=orthogonalEdgeStyle;rounded=0;orthogonalLoop=1;jettySize=auto;html=1;entryX=1;entryY=0;entryDx=0;entryDy=0;endArrow=none;endFill=0;fillColor=#f8cecc;strokeColor=#ff0000;" edge="1" parent="1" source="U2Io4nyAQiquWzaoB_U4-36" target="U2Io4nyAQiquWzaoB_U4-71">
          <mxGeometry relative="1" as="geometry" />
        </mxCell>
        <mxCell id="U2Io4nyAQiquWzaoB_U4-36" value="G32" style="rounded=0;whiteSpace=wrap;html=1;" vertex="1" parent="1">
          <mxGeometry x="505" y="300" width="30" height="10" as="geometry" />
        </mxCell>
        <mxCell id="U2Io4nyAQiquWzaoB_U4-37" value="G35" style="rounded=0;whiteSpace=wrap;html=1;" vertex="1" parent="1">
          <mxGeometry x="505" y="320" width="30" height="10" as="geometry" />
        </mxCell>
        <mxCell id="U2Io4nyAQiquWzaoB_U4-38" value="G34" style="rounded=0;whiteSpace=wrap;html=1;" vertex="1" parent="1">
          <mxGeometry x="505" y="340" width="30" height="10" as="geometry" />
        </mxCell>
        <mxCell id="U2Io4nyAQiquWzaoB_U4-39" value="SN" style="rounded=0;whiteSpace=wrap;html=1;" vertex="1" parent="1">
          <mxGeometry x="505" y="360" width="30" height="10" as="geometry" />
        </mxCell>
        <mxCell id="U2Io4nyAQiquWzaoB_U4-40" value="SP" style="rounded=0;whiteSpace=wrap;html=1;" vertex="1" parent="1">
          <mxGeometry x="505" y="380" width="30" height="10" as="geometry" />
        </mxCell>
        <mxCell id="U2Io4nyAQiquWzaoB_U4-41" value="EN" style="rounded=0;whiteSpace=wrap;html=1;" vertex="1" parent="1">
          <mxGeometry x="505" y="400" width="30" height="10" as="geometry" />
        </mxCell>
        <mxCell id="U2Io4nyAQiquWzaoB_U4-42" value="3v3" style="rounded=0;whiteSpace=wrap;html=1;" vertex="1" parent="1">
          <mxGeometry x="505" y="420" width="30" height="10" as="geometry" />
        </mxCell>
        <mxCell id="U2Io4nyAQiquWzaoB_U4-43" value="BOOT" style="rounded=1;whiteSpace=wrap;html=1;" vertex="1" parent="1">
          <mxGeometry x="355" y="47.5" width="40" height="35" as="geometry" />
        </mxCell>
        <mxCell id="U2Io4nyAQiquWzaoB_U4-44" value="RST" style="rounded=1;whiteSpace=wrap;html=1;" vertex="1" parent="1">
          <mxGeometry x="455" y="47.5" width="40" height="35" as="geometry" />
        </mxCell>
        <mxCell id="U2Io4nyAQiquWzaoB_U4-75" style="edgeStyle=orthogonalEdgeStyle;rounded=0;orthogonalLoop=1;jettySize=auto;html=1;entryX=0;entryY=0.5;entryDx=0;entryDy=0;exitX=1;exitY=0.5;exitDx=0;exitDy=0;jumpStyle=none;endArrow=none;endFill=0;strokeColor=#FF850A;" edge="1" parent="1" source="U2Io4nyAQiquWzaoB_U4-51" target="U2Io4nyAQiquWzaoB_U4-21">
          <mxGeometry relative="1" as="geometry">
            <Array as="points">
              <mxPoint x="160" y="385" />
            </Array>
          </mxGeometry>
        </mxCell>
        <mxCell id="U2Io4nyAQiquWzaoB_U4-74" style="edgeStyle=orthogonalEdgeStyle;rounded=0;orthogonalLoop=1;jettySize=auto;html=1;entryX=0;entryY=0.5;entryDx=0;entryDy=0;endArrow=none;endFill=0;exitX=1;exitY=0.5;exitDx=0;exitDy=0;jumpStyle=none;fillColor=#dae8fc;strokeColor=#6c8ebf;" edge="1" parent="1" source="U2Io4nyAQiquWzaoB_U4-55" target="U2Io4nyAQiquWzaoB_U4-23">
          <mxGeometry relative="1" as="geometry">
            <Array as="points">
              <mxPoint x="170" y="425" />
            </Array>
          </mxGeometry>
        </mxCell>
        <mxCell id="U2Io4nyAQiquWzaoB_U4-76" style="edgeStyle=orthogonalEdgeStyle;rounded=0;orthogonalLoop=1;jettySize=auto;html=1;entryX=0;entryY=0.5;entryDx=0;entryDy=0;exitX=1;exitY=0.5;exitDx=0;exitDy=0;endArrow=none;endFill=0;fillColor=#d5e8d4;strokeColor=#82b366;" edge="1" parent="1" source="U2Io4nyAQiquWzaoB_U4-57" target="U2Io4nyAQiquWzaoB_U4-16">
          <mxGeometry relative="1" as="geometry">
            <mxPoint x="535" y="520" as="sourcePoint" />
            <Array as="points">
              <mxPoint x="190" y="285" />
            </Array>
          </mxGeometry>
        </mxCell>
        <mxCell id="U2Io4nyAQiquWzaoB_U4-77" style="edgeStyle=orthogonalEdgeStyle;rounded=0;orthogonalLoop=1;jettySize=auto;html=1;entryX=0;entryY=0.5;entryDx=0;entryDy=0;endArrow=none;endFill=0;fillColor=#e1d5e7;strokeColor=#9673a6;exitX=1;exitY=0.5;exitDx=0;exitDy=0;" edge="1" parent="1" source="U2Io4nyAQiquWzaoB_U4-58" target="U2Io4nyAQiquWzaoB_U4-22">
          <mxGeometry relative="1" as="geometry">
            <Array as="points">
              <mxPoint x="200" y="405" />
            </Array>
          </mxGeometry>
        </mxCell>
        <mxCell id="U2Io4nyAQiquWzaoB_U4-78" style="edgeStyle=orthogonalEdgeStyle;rounded=0;orthogonalLoop=1;jettySize=auto;html=1;entryX=0;entryY=0.5;entryDx=0;entryDy=0;endArrow=none;endFill=0;strokeColor=#663300;exitX=1;exitY=0.5;exitDx=0;exitDy=0;" edge="1" parent="1" source="U2Io4nyAQiquWzaoB_U4-59" target="U2Io4nyAQiquWzaoB_U4-15">
          <mxGeometry relative="1" as="geometry">
            <Array as="points">
              <mxPoint x="210" y="265" />
            </Array>
          </mxGeometry>
        </mxCell>
        <mxCell id="U2Io4nyAQiquWzaoB_U4-79" style="edgeStyle=orthogonalEdgeStyle;rounded=0;orthogonalLoop=1;jettySize=auto;html=1;entryX=0;entryY=0.5;entryDx=0;entryDy=0;endArrow=none;endFill=0;" edge="1" parent="1" source="U2Io4nyAQiquWzaoB_U4-60" target="U2Io4nyAQiquWzaoB_U4-14">
          <mxGeometry relative="1" as="geometry">
            <Array as="points">
              <mxPoint x="220" y="245" />
            </Array>
          </mxGeometry>
        </mxCell>
        <mxCell id="U2Io4nyAQiquWzaoB_U4-67" value="BUZZER" style="ellipse;whiteSpace=wrap;html=1;aspect=fixed;" vertex="1" parent="1">
          <mxGeometry x="730" y="620" width="60" height="60" as="geometry" />
        </mxCell>
        <mxCell id="U2Io4nyAQiquWzaoB_U4-70" value="LED green" style="ellipse;whiteSpace=wrap;html=1;aspect=fixed;" vertex="1" parent="1">
          <mxGeometry x="560" y="620" width="60" height="60" as="geometry" />
        </mxCell>
        <mxCell id="U2Io4nyAQiquWzaoB_U4-71" value="LED red" style="ellipse;whiteSpace=wrap;html=1;aspect=fixed;" vertex="1" parent="1">
          <mxGeometry x="645" y="620" width="60" height="60" as="geometry" />
        </mxCell>
        <mxCell id="U2Io4nyAQiquWzaoB_U4-72" style="edgeStyle=orthogonalEdgeStyle;rounded=0;orthogonalLoop=1;jettySize=auto;html=1;entryX=1;entryY=0.5;entryDx=0;entryDy=0;startArrow=none;startFill=0;endArrow=none;endFill=0;fillColor=#ffe6cc;strokeColor=#ff0000;" edge="1" parent="1" source="U2Io4nyAQiquWzaoB_U4-42" target="U2Io4nyAQiquWzaoB_U4-49">
          <mxGeometry relative="1" as="geometry">
            <Array as="points">
              <mxPoint x="555" y="425" />
              <mxPoint x="555" y="520" />
              <mxPoint x="150" y="520" />
            </Array>
          </mxGeometry>
        </mxCell>
        <mxCell id="U2Io4nyAQiquWzaoB_U4-81" style="edgeStyle=orthogonalEdgeStyle;rounded=0;orthogonalLoop=1;jettySize=auto;html=1;entryX=0.229;entryY=0.048;entryDx=0;entryDy=0;entryPerimeter=0;endArrow=none;endFill=0;" edge="1" parent="1" source="U2Io4nyAQiquWzaoB_U4-29" target="U2Io4nyAQiquWzaoB_U4-70">
          <mxGeometry relative="1" as="geometry" />
        </mxCell>
        <mxCell id="U2Io4nyAQiquWzaoB_U4-82" style="edgeStyle=orthogonalEdgeStyle;rounded=0;orthogonalLoop=1;jettySize=auto;html=1;entryX=0.249;entryY=0.048;entryDx=0;entryDy=0;entryPerimeter=0;endArrow=none;endFill=0;" edge="1" parent="1" source="U2Io4nyAQiquWzaoB_U4-29" target="U2Io4nyAQiquWzaoB_U4-71">
          <mxGeometry relative="1" as="geometry" />
        </mxCell>
        <mxCell id="U2Io4nyAQiquWzaoB_U4-83" style="edgeStyle=orthogonalEdgeStyle;rounded=0;orthogonalLoop=1;jettySize=auto;html=1;entryX=0.293;entryY=0.025;entryDx=0;entryDy=0;entryPerimeter=0;endArrow=none;endFill=0;" edge="1" parent="1" source="U2Io4nyAQiquWzaoB_U4-29" target="U2Io4nyAQiquWzaoB_U4-67">
          <mxGeometry relative="1" as="geometry" />
        </mxCell>
      </root>
    </mxGraphModel>
  </diagram>
</mxfile>
